<svg xmlns="http://www.w3.org/2000/svg" viewBox="0 0 960 322" width="960" height="322" font-family="Segoe UI, Helvetica, Arial, sans-serif">
<rect width="960" height="322" rx="14" fill="#0d1117"/>
<defs><marker id="a" markerWidth="10" markerHeight="10" refX="8" refY="5" orient="auto"><path d="M0,0 L10,5 L0,10 z" fill="#14b8a6"/></marker></defs>
<text x="165.0" y="44" fill="#8b949e" font-size="13" text-anchor="middle" letter-spacing="2">INPUTS</text>
<rect x="40" y="107.0" width="250" height="58" rx="9" fill="#161b22" stroke="#30363d" stroke-width="1.5"/>
<text x="165.0" y="141.0" fill="#e6edf3" font-size="14" text-anchor="middle">Website chat widget</text>
<rect x="40" y="181.0" width="250" height="58" rx="9" fill="#161b22" stroke="#30363d" stroke-width="1.5"/>
<text x="165.0" y="206.5" fill="#e6edf3" font-size="14" text-anchor="middle">Business hours + blackout</text>
<text x="165.0" y="223.5" fill="#e6edf3" font-size="14" text-anchor="middle">dates</text>
<text x="480.0" y="44" fill="#8b949e" font-size="13" text-anchor="middle" letter-spacing="2">CORE</text>
<rect x="355" y="70.0" width="250" height="58" rx="9" fill="#11251a" stroke="#14b8a6" stroke-width="1.5"/>
<text x="480.0" y="104.0" fill="#e6edf3" font-size="14" text-anchor="middle">Conversational qualification</text>
<rect x="355" y="144.0" width="250" height="58" rx="9" fill="#11251a" stroke="#14b8a6" stroke-width="1.5"/>
<text x="480.0" y="169.5" fill="#e6edf3" font-size="14" text-anchor="middle">Slot generator with conflict</text>
<text x="480.0" y="186.5" fill="#e6edf3" font-size="14" text-anchor="middle">checks</text>
<rect x="355" y="218.0" width="250" height="58" rx="9" fill="#11251a" stroke="#14b8a6" stroke-width="1.5"/>
<text x="480.0" y="252.0" fill="#e6edf3" font-size="14" text-anchor="middle">GHL API client</text>
<text x="795.0" y="44" fill="#8b949e" font-size="13" text-anchor="middle" letter-spacing="2">OUTPUTS</text>
<rect x="670" y="107.0" width="250" height="58" rx="9" fill="#161b22" stroke="#30363d" stroke-width="1.5"/>
<text x="795.0" y="141.0" fill="#e6edf3" font-size="14" text-anchor="middle">GHL contact + calendar event</text>
<rect x="670" y="181.0" width="250" height="58" rx="9" fill="#161b22" stroke="#30363d" stroke-width="1.5"/>
<text x="795.0" y="206.5" fill="#e6edf3" font-size="14" text-anchor="middle">Booking dashboard + audit</text>
<text x="795.0" y="223.5" fill="#e6edf3" font-size="14" text-anchor="middle">trail</text>
<path d="M290,136.0 C340,136.0 305,173.0 351,173.0" stroke="#14b8a6" stroke-opacity=".7" fill="none" stroke-width="1.6" marker-end="url(#a)"/>
<path d="M290,210.0 C340,210.0 305,173.0 351,173.0" stroke="#14b8a6" stroke-opacity=".7" fill="none" stroke-width="1.6" marker-end="url(#a)"/>
<path d="M605,173.0 C655,173.0 620,136.0 666,136.0" stroke="#14b8a6" stroke-opacity=".7" fill="none" stroke-width="1.6" marker-end="url(#a)"/>
<path d="M605,173.0 C655,173.0 620,210.0 666,210.0" stroke="#14b8a6" stroke-opacity=".7" fill="none" stroke-width="1.6" marker-end="url(#a)"/>
</svg>